# xmcd
#
# Track frame offsets:
#	150
#	12261
#	26832
#	40450
#	56782
#	92348
#	112186
#	134110
#	147277
#	157520
#	174271
#	187023
#	201664
#	217650
#	235736
#	252868
#	288255
#
# Disc length: 4116 seconds
#
# Revision: 2
# Processed by: cddbd v1.5.2PL0 Copyright (c) Steve Scherf et al.
# Submitted via: EZCDAudioConverter 2.1.7.1
#
DISCID=f3101211
DTITLE=V/A - Songs In The Key Of Z V2
DYEAR=2002
DGENRE=
TTITLE0=Shooby Taylor - Lift Ev'ry Voice And Sing
TTITLE1=Bingo Gazingo and My Robot Friend - You're Out Of The Computer
TTITLE2=B.J. Snowden - America
TTITLE3=Alvin Dahn - You're Driving Me Mad
TTITLE4=Congress-Woman Malinda Jackson Parker - Cousin Mosquito #2
TTITLE5=Space Lady - I Had Too Much To Dream (Last Night)
TTITLE6=Luie Luie - Touch Of Light
TTITLE7=Unknown - Curly Toes
TTITLE8=Eddie Murray - Stepping High Dance
TTITLE9=Dick Kent - Five Feet Nine And A Half Inches Tall
TTITLE10=Gary Mullis - Recitation About Roy Acuff
TTITLE11=Wayne - Deep Bosom Woman
TTITLE12=Bob Vido - High Speed
TTITLE13=Thoth - The Herma, Scene 5: Recitation/An
TTITLE14=Tangela Tricoli - Jet Lady
TTITLE15=Buddy Max - The Birthmark Story
TTITLE16=Mark Kennis - Heart Of The Heartland
EXTD=
EXTT0=
EXTT1=
EXTT2=
EXTT3=
EXTT4=
EXTT5=
EXTT6=
EXTT7=
EXTT8=
EXTT9=
EXTT10=
EXTT11=
EXTT12=
EXTT13=
EXTT14=
EXTT15=
EXTT16=
PLAYORDER=
